<svg width="141" height="141" viewBox="0 0 141 141" fill="none" xmlns="http://www.w3.org/2000/svg">
<path fill-rule="evenodd" clip-rule="evenodd" d="M140.459 70.1606C140.459 108.909 109.047 140.321 70.2983 140.321C31.5497 140.321 0.137695 108.909 0.137695 70.1606C0.137695 31.412 31.5497 0 70.2983 0C109.047 0 140.459 31.412 140.459 70.1606ZM80.5719 26.6698C77.5819 23.6798 73.5266 22 69.298 22C65.0696 22.0001 61.0143 23.68 58.0244 26.67C55.0345 29.66 53.3548 33.7153 53.3548 37.9437L53.3548 53.8875H37.411C33.1825 53.8875 29.1271 55.5673 26.1371 58.5573C23.1471 61.5473 21.4673 65.6027 21.4673 69.8312C21.4673 74.0598 23.1471 78.1151 26.1371 81.1051C29.1271 84.0952 33.1825 85.775 37.411 85.775C41.6396 85.775 45.6949 84.0952 48.6849 81.1051C51.675 78.1151 53.3548 74.0598 53.3548 69.8312V53.8875L85.2418 53.8875L85.2413 85.775H69.2975C66.1443 85.7751 63.0619 86.7102 60.4401 88.4621C57.8184 90.214 55.7749 92.704 54.5683 95.6172C53.3617 98.5305 53.046 101.736 53.6612 104.829C54.2763 107.921 55.7948 110.762 58.0245 112.992C60.2541 115.221 63.0949 116.74 66.1875 117.355C69.2802 117.97 72.4858 117.655 75.399 116.448C78.3122 115.241 80.8022 113.198 82.5541 110.576C84.306 107.954 85.2412 104.872 85.2413 101.719V85.775C102.852 85.775 117.13 71.4985 117.13 53.8875L85.2418 53.8875V37.9437C85.2418 33.7152 83.562 29.6598 80.5719 26.6698Z" fill="#282650"/>
</svg>
