<svg width="80" height="80" viewBox="0 0 80 80" fill="none" xmlns="http://www.w3.org/2000/svg">
<rect width="80" height="80" rx="20" fill="white"/>
<path d="M64.7727 12.9999H26.3596C26.2134 12.9999 26.0672 13.0151 25.9236 13.0439C25.8586 13.057 25.7983 13.0811 25.7354 13.0994C25.6589 13.1214 25.5819 13.1393 25.508 13.1697C25.433 13.2006 25.3654 13.243 25.2952 13.2818C25.2386 13.3127 25.1794 13.3379 25.1249 13.3741C25.0022 13.4558 24.8874 13.5491 24.7837 13.6529L13.6531 24.7837C13.5488 24.8875 13.456 25.0022 13.3737 25.1249C13.3381 25.1783 13.314 25.236 13.2831 25.2915C13.2438 25.3628 13.2008 25.4315 13.1694 25.5075C13.139 25.5808 13.1217 25.6574 13.0991 25.7328C13.0803 25.7962 13.0561 25.857 13.043 25.9226C13.0142 26.0667 12.999 26.2124 12.999 26.3586V64.7724C12.999 66.002 13.9958 66.9993 15.2259 66.9993H53.639C53.7852 66.9993 53.9309 66.9841 54.075 66.9553C54.1405 66.9422 54.2008 66.9176 54.2642 66.8992C54.3402 66.8772 54.4167 66.8594 54.4906 66.829C54.5655 66.7981 54.6337 66.7551 54.7039 66.7163C54.7605 66.6854 54.8192 66.6608 54.8732 66.6246C54.9958 66.5428 55.1106 66.4495 55.2144 66.3458L66.345 55.215C66.4492 55.1112 66.542 54.9964 66.6243 54.8738C66.6599 54.8203 66.684 54.7627 66.715 54.7071C66.7543 54.6358 66.7972 54.5672 66.8287 54.4912C66.8591 54.4178 66.8764 54.3413 66.8989 54.2658C66.9178 54.2024 66.9419 54.1416 66.955 54.0761C66.9838 53.932 66.999 53.7863 66.999 53.64V15.2262C66.999 13.9967 66.0022 12.9993 64.7722 12.9993L64.7727 12.9999ZM28.5865 51.4137V17.4536H62.5458V25.8052H39.8565V29.1877H36.8V39.8159H40.1227V43.0627H54.3323V38.6094H41.2537V30.2584H62.5464V51.4142H28.587L28.5865 51.4137Z" fill="#7257BA"/>
</svg>
