<svg width="24" height="24" viewBox="0 0 24 24" fill="none" xmlns="http://www.w3.org/2000/svg">
<path d="M10.983 12.0593L9.69701 14.2902L8.40912 12.0593L7.12122 9.82852L5.83333 7.59962L4.76008 5.74061C4.69517 5.62779 4.66101 5.49992 4.66101 5.36976C4.66101 5.23961 4.69517 5.11173 4.76008 4.99892L5.83333 3.13799L7.12122 0.909088L10.983 7.59962C10.9892 7.60788 10.9944 7.6169 10.9983 7.62645C11.3826 8.30249 11.5834 9.0673 11.5807 9.84494C11.578 10.6226 11.372 11.386 10.983 12.0593Z" fill="url(#ll)"/>
<path d="M18.7142 5.36881C18.8443 5.36871 18.9721 5.40292 19.0848 5.46799C19.1974 5.53305 19.2909 5.62668 19.3558 5.73941C19.4207 5.85215 19.4548 5.98001 19.4545 6.1101C19.4543 6.2402 19.4197 6.36792 19.3543 6.48039L18.7084 7.59963L17.4205 9.82853L16.7747 10.9478C16.7098 11.0604 16.6164 11.154 16.5039 11.2191C16.3913 11.2841 16.2636 11.3184 16.1336 11.3184C16.0036 11.3184 15.8759 11.2841 15.7634 11.2191C15.6508 11.154 15.5574 11.0604 15.4925 10.9478L14.8467 9.82853L13.553 7.59963L12.9072 6.48039C12.8422 6.3674 12.8081 6.23928 12.8084 6.10892C12.8086 5.97857 12.8433 5.85059 12.9087 5.73788C12.9742 5.62517 13.0683 5.53171 13.1814 5.46692C13.2945 5.40212 13.4227 5.36828 13.553 5.36881H18.7142Z" fill="url(#yy)"/>
<path d="M14.632 13.9183C14.6969 14.0312 14.7311 14.159 14.7311 14.2892C14.7311 14.4194 14.6969 14.5472 14.632 14.66L9.91167 22.8397C9.84647 22.9522 9.75284 23.0456 9.64015 23.1106C9.52746 23.1755 9.39969 23.2096 9.26964 23.2096H4.54544L9.6951 14.2902L10.9811 12.0593C11.3701 11.386 11.5761 10.6226 11.5788 9.84493C11.5815 9.0673 11.3807 8.30249 10.9964 7.62645L14.632 13.9183Z" fill="#00B1E9"/>
<defs>
<linearGradient id="ll" x1="6.52519" y1="13.606" x2="8.37462" y2="6.93651" gradientUnits="userSpaceOnUse">
<stop stop-color="white"/>
<stop offset="1" stop-color="#00B1E9"/>
</linearGradient>
<linearGradient id="yy" x1="12.8133" y1="8.34323" x2="19.4559" y2="8.34323" gradientUnits="userSpaceOnUse">
<stop stop-color="white"/>
<stop offset="0.65" stop-color="#00B1E9"/>
</linearGradient>
</defs>
</svg>
